HIERARCHY
ROOT Bip001_Pelvis
{
  OFFSET 7.937 94.8971 -8.5489
  CHANNELS 6 Xposition Yposition Zposition Zrotation Xrotation Yrotation
  JOINT Bip001_Spine
  {
    OFFSET 1.44608e-005 10.4157 -0.0118244
    CHANNELS 3 Zrotation Xrotation Yrotation
    JOINT Bip001_L_Thigh
    {
      OFFSET 11.2582 -10.4157 0.0118432
      CHANNELS 3 Zrotation Xrotation Yrotation
      JOINT Bip001_L_Calf
      {
        OFFSET -0.720717 -44.8687 0.366937
        CHANNELS 3 Zrotation Xrotation Yrotation
        JOINT Bip001_L_Foot
        {
          OFFSET -0.664439 -41.3745 -3.62995
          CHANNELS 3 Zrotation Xrotation Yrotation
          JOINT Bip001_L_Toe0
          {
            OFFSET 0.0541047 -10.4146 13.4033
            CHANNELS 3 Zrotation Xrotation Yrotation
            End Site
            {
              OFFSET -1.04503e-005 0 7.70137
            }
          }
        }
      }
    }
    JOINT Bip001_R_Thigh
    {
      OFFSET -11.2582 -10.4156 0.0118122
      CHANNELS 3 Zrotation Xrotation Yrotation
      JOINT Bip001_R_Calf
      {
        OFFSET 0.72059 -44.8687 0.36676
        CHANNELS 3 Zrotation Xrotation Yrotation
        JOINT Bip001_R_Foot
        {
          OFFSET 0.664321 -41.3745 -3.62979
          CHANNELS 3 Zrotation Xrotation Yrotation
          JOINT Bip001_R_Toe0
          {
            OFFSET -0.05417 -10.4146 13.4033
            CHANNELS 3 Zrotation Xrotation Yrotation
            End Site
            {
              OFFSET -1.04873e-005 0 7.70137
            }
          }
        }
      }
    }
    JOINT Bip001_Spine1
    {
      OFFSET 1.90638e-005 14.8539 1.10727
      CHANNELS 3 Zrotation Xrotation Yrotation
      JOINT Bip001_Spine2
      {
        OFFSET 2.28934e-005 14.7848 -1.7233
        CHANNELS 3 Zrotation Xrotation Yrotation
        JOINT Bip001_Neck
        {
          OFFSET 2.24514e-005 15.6905 -0.498826
          CHANNELS 3 Zrotation Xrotation Yrotation
          JOINT Bip001_L_Clavicle
          {
            OFFSET 6.17691 -0.000591152 0.00852867
            CHANNELS 3 Zrotation Xrotation Yrotation
            JOINT Bip001_L_UpperArm
            {
              OFFSET 11.773 -0.0611878 0.00197697
              CHANNELS 3 Zrotation Xrotation Yrotation
              JOINT Bip001_L_Forearm
              {
                OFFSET 26.4515 0.0817568 -2.19579
                CHANNELS 3 Zrotation Xrotation Yrotation
                JOINT Bip001_L_Hand
                {
                  OFFSET 32.8677 0.156744 1.67112
                  CHANNELS 3 Zrotation Xrotation Yrotation
                  JOINT Bip001_L_Finger0
                  {
                    OFFSET 6.16268 -2.25226 6.01674
                    CHANNELS 3 Zrotation Xrotation Yrotation
                    End Site
                    {
                      OFFSET 4.30499 -1.46662 0.618148
                    }
                  }
                  JOINT Bip001_L_Finger1
                  {
                    OFFSET 11.2957 -0.718374 -0.201963
                    CHANNELS 3 Zrotation Xrotation Yrotation
                    End Site
                    {
                      OFFSET 6.31952 -0.405163 -0.0802303
                    }
                  }
                }
              }
            }
          }
          JOINT Bip001_R_Clavicle
          {
            OFFSET -6.17691 -0.000574027 0.00851165
            CHANNELS 3 Zrotation Xrotation Yrotation
            JOINT Bip001_R_UpperArm
            {
              OFFSET -11.773 -0.0611516 0.00194365
              CHANNELS 3 Zrotation Xrotation Yrotation
              JOINT Bip001_R_Forearm
              {
                OFFSET -26.4514 0.0822334 -2.19736
                CHANNELS 3 Zrotation Xrotation Yrotation
                JOINT Bip001_R_Hand
                {
                  OFFSET -32.8677 0.156817 1.67144
                  CHANNELS 3 Zrotation Xrotation Yrotation
                  JOINT Bip001_R_Finger0
                  {
                    OFFSET -6.1627 -2.25224 6.0167
                    CHANNELS 3 Zrotation Xrotation Yrotation
                    End Site
                    {
                      OFFSET -4.30499 -1.46662 0.618134
                    }
                  }
                  JOINT Bip001_R_Finger1
                  {
                    OFFSET -11.2958 -0.718344 -0.201994
                    CHANNELS 3 Zrotation Xrotation Yrotation
                    End Site
                    {
                      OFFSET -6.31952 -0.405146 -0.0802475
                    }
                  }
                }
              }
            }
          }
          JOINT Bip001_Head
          {
            OFFSET 1.11782e-005 11.4912 2.09908
            CHANNELS 3 Zrotation Xrotation Yrotation
            End Site
            {
              OFFSET 2.95144e-005 21.2823 -2.83069e-005
            }
          }
        }
      }
    }
  }
}
MOTION
Frames:	16
Frame Time:	0.04
6.61558 95.588 -8.63044 -0.806622 -2.9366 1.5381 0.114021 1.02824 0.300887 7.04081 -6.40562 8.06416 -1.38721 15.0234 -1.1349 -3.43489 -5.7488 0.0478018 0.562347 -9.86269 0.230611 -6.52863 -3.77125 -0.614322 0.241841 13.8156 1.91498 0.787951 -7.48448 -9.7775 -1.16579 -11.4376 0.509488 0.0386784 2.04619 0.596775 0.038689 2.04618 0.596469 -2.64205 -2.37698 -0.565434 -28.081 8.54425 -12.5649 -52.1975 40.1204 9.17293 13.9025 2.3195 -26.7579 -4.74684 -0.382807 -0.0409018 -1.59028e-015 3.18055e-015 -0 1.59028e-015 0 -1.59028e-015 34.5837 10.1832 15.8716 58.8555 41.8135 -21.2256 -5.34774 -16.5904 25.0998 11.3932 1.61636 -13.8955 -7.95139e-016 6.36111e-015 -3.97569e-016 -7.95139e-016 6.36111e-015 1.59028e-015 0.0145546 -0.165028 -1.28241 
6.60177 95.5892 -8.54735 -0.838394 -3.05488 1.41317 0.126866 1.02824 0.231675 7.07049 -6.18341 8.16435 -1.33155 14.9983 -1.07796 -3.4886 -5.84336 -0.0264652 0.574839 -9.83527 0.304375 -6.46866 -3.6057 1.62624 0.770082 13.6905 0.826428 0.615882 -7.49025 -10.7389 -1.19427 -11.4081 0.444846 0.0656058 2.07679 0.45627 0.0656055 2.07678 0.456268 -2.76238 -2.27982 -0.493776 -27.9714 8.43077 -12.4913 -52.5396 40.3497 9.43049 14.065 2.34124 -26.9187 -4.84172 -0.418657 -0.338813 3.18055e-015 3.18055e-015 -3.18055e-015 4.77083e-015 0 -3.18055e-015 34.6548 10.0164 15.7772 59.5582 39.6418 -23.4222 -8.30769 -16.54 30.792 9.13352 2.34817 -13.5958 4.96962e-016 -3.18055e-015 -0 3.97569e-016 3.18056e-015 -1.98785e-016 0.0462794 -0.129245 -1.25587 
6.61506 95.5849 -8.48543 -0.794641 -3.12235 1.34147 0.129755 1.02825 0.204508 6.99808 -6.04003 8.02874 -1.33229 14.9481 -0.974328 -3.51605 -5.87743 0.0641633 0.579183 -9.83149 0.32993 -6.52923 -3.5571 1.2159 0.663738 13.7838 1.10613 0.635442 -7.55777 -10.4965 -1.17523 -11.4176 0.455777 0.0729002 2.0758 0.40206 0.0729004 2.07577 0.402063 -2.71691 -2.23296 -0.588863 -28.0654 8.38169 -12.512 -52.6424 40.5635 9.49103 14.2484 2.67 -26.7022 -5.34123 -0.457738 -0.542185 1.59028e-015 6.36111e-015 -1.59028e-015 1.59028e-015 6.36111e-015 -2.38542e-015 34.6731 9.98922 15.7299 57.1107 33.3646 -23.1733 -10.1774 -14.6149 36.7215 7.08978 2.46007 -12.2904 3.18055e-015 -3.18055e-015 -7.95139e-016 3.18055e-015 -6.36111e-015 -7.95139e-016 -0.060342 0.0604345 -1.31305 
6.6174 95.558 -8.40772 -0.77128 -3.19224 1.29967 0.133245 1.02825 0.168126 6.92873 -5.96209 8.24309 -1.15479 15.0708 -1.31877 -3.5761 -6.03042 0.168886 0.589794 -9.81219 0.386208 -6.55447 -3.5444 -0.70128 0.138877 14.0433 2.29272 0.754275 -7.70933 -9.63959 -1.13202 -11.4549 0.491425 0.0737963 2.06452 0.329701 0.0737963 2.06453 0.329703 -2.68961 -2.24509 -0.631948 -28.0193 8.3604 -12.472 -52.8674 40.5272 9.62009 14.3036 2.8806 -26.6123 -5.22227 -0.394233 -0.270981 -4.41391e-032 -3.18055e-015 -7.95139e-016 1.59028e-015 -3.18056e-015 -1.59028e-015 34.7024 10.0225 15.7226 54.2115 25.7761 -22.6174 -11.9083 -12.5626 43.582 2.5802 2.80012 -11.3082 -1.59028e-015 -9.54166e-015 1.59028e-015 -1.59028e-015 -9.54167e-015 -0 -0.0893434 0.189183 -1.34037 
6.59568 95.5644 -8.33981 -0.768935 -3.20337 1.33868 0.137466 1.02303 0.119223 7.03029 -5.87126 8.30655 -1.3476 15.0205 -1.12645 -3.52257 -6.01257 -0.0108371 0.584471 -9.82601 0.340318 -6.54621 -3.46497 -0.721929 0.127763 14.0002 2.27375 0.726612 -7.72123 -9.59415 -1.11066 -11.4552 0.493382 0.0957742 2.04766 0.232066 0.095774 2.04767 0.232069 -2.68193 -2.25525 -0.709884 -27.8992 8.31507 -12.411 -52.4746 40.5088 9.08892 13.9801 3.11552 -26.2094 -5.1786 -0.499825 -0.327461 1.76556e-031 -6.36111e-015 1.59028e-015 3.18055e-015 -3.18056e-015 -7.95139e-016 34.7817 10.1026 15.8006 51.2138 17.9671 -22.1503 -15.5657 -9.59799 50.4776 -3.27917 3.62723 -10.0464 9.54166e-015 3.18055e-015 -3.18055e-015 9.54166e-015 3.18056e-015 -3.18055e-015 -0.110032 0.133001 -1.40949 
6.57225 95.5665 -8.24489 -0.813095 -3.23498 1.40147 0.1648 1.01066 0.0799416 7.11315 -5.77739 8.6282 -1.34119 15.0595 -1.2778 -3.54427 -6.06295 -0.215237 0.587314 -9.82622 0.339906 -6.49726 -3.29573 -0.352786 0.221251 13.8862 2.15691 0.622008 -7.72377 -9.86711 -1.07545 -11.4557 0.475361 0.156253 2.03317 0.153499 0.156252 2.03317 0.153501 -2.72596 -2.19168 -0.797296 -27.7898 8.24601 -12.4662 -52.5432 40.3826 9.236 14.014 3.07783 -26.1559 -5.29651 -0.44296 -0.276387 3.18055e-015 0 7.95139e-016 3.18055e-015 3.18056e-015 1.59028e-015 34.8486 10.086 15.8507 47.4395 9.2178 -21.4653 -18.911 -6.15323 58.2866 -10.967 3.764 -8.05693 1.59028e-015 7.95139e-015 6.36111e-015 1.59028e-015 1.11319e-014 -0 -0.0929717 0.116864 -1.51245 
6.56332 95.5634 -8.21841 -0.738746 -3.20365 1.49755 0.168253 0.997903 0.0430745 7.02649 -5.74469 8.60072 -1.32317 14.9641 -1.33689 -3.54707 -6.02465 -0.204032 0.593534 -9.82623 0.358097 -6.58082 -3.32236 -0.354941 0.247557 13.9974 2.10174 0.625355 -7.8195 -9.86665 -1.09383 -11.4516 0.467822 0.16187 1.99198 0.079675 0.16187 1.99198 0.0796754 -2.60268 -2.19271 -0.919054 -27.7911 8.19136 -12.4582 -52.549 40.3211 9.32013 13.9396 3.03327 -26.1483 -5.18306 -0.410008 -0.112769 -1.59028e-015 -6.36111e-015 2.38542e-015 1.59028e-015 -6.36111e-015 7.95139e-016 34.7307 10.1985 16.0487 42.717 -0.665307 -20.1727 -21.6159 -1.95176 66.3544 -19.0425 3.40048 -5.42124 7.15625e-015 -1.98785e-015 -6.36111e-015 6.36111e-015 2.38542e-015 -6.36111e-015 -0.197484 0.297063 -1.57279 
6.55237 95.5629 -8.1807 -0.674663 -3.16413 1.62749 0.161409 0.980656 0.0284787 6.93857 -5.73424 8.39969 -1.30716 14.876 -1.39912 -3.54997 -6.00274 -0.0754403 0.582177 -9.82623 0.384921 -6.62977 -3.32431 -0.422858 0.261152 14.0698 2.2573 0.558651 -7.89576 -10.056 -1.08145 -11.4515 0.450051 0.150155 1.96867 0.0393172 0.150154 1.96867 0.0393178 -2.4384 -2.23296 -1.05888 -27.7762 8.16667 -12.3924 -52.3346 40.3177 9.20817 13.7926 3.00474 -26.1032 -5.15929 -0.289719 0.0107011 -4.41391e-032 3.18055e-015 7.95139e-016 -8.82782e-032 3.18056e-015 1.59028e-015 34.7276 10.3668 16.1892 37.6703 -10.9549 -18.8677 -24.9252 1.8013 74.8898 -26.1781 2.59234 -4.04315 1.59028e-015 -7.95139e-016 -3.18055e-015 1.59028e-015 -2.38542e-015 -3.18055e-015 -0.258432 0.441414 -1.64818 
6.52539 95.5652 -8.13884 -0.620189 -3.2295 1.66239 0.151227 0.989978 0.0686301 6.89421 -5.60488 8.73686 -1.18792 14.7684 -1.81019 -3.56742 -5.96566 -0.10648 0.582549 -9.82644 0.386755 -6.64172 -3.25466 -0.210561 0.320783 14.1214 2.28151 0.463122 -7.95406 -10.3473 -1.0579 -11.4515 0.416141 0.13216 1.98002 0.131514 0.13216 1.98002 0.131512 -2.23324 -2.18143 -1.28473 -27.8043 8.07412 -12.4761 -52.1665 40.266 9.19679 13.8081 3.02048 -26.0515 -5.18259 -0.414099 -0.0325977 1.59028e-015 3.18055e-015 7.95139e-016 3.18055e-015 6.36111e-015 7.95139e-016 34.7073 10.4331 16.2403 33.0166 -19.6648 -16.5005 -26.9101 4.0647 82.0466 -33.2302 2.22706 -3.55516 -3.18055e-015 -3.18055e-015 -3.18055e-015 0 1.59028e-015 -0 -0.391174 0.467055 -1.78244 
6.61443 95.5783 -8.01507 -0.279649 -3.15663 1.82222 0.0903863 0.970817 0.0849669 6.46018 -5.34176 9.01615 -0.984443 14.2224 -2.00194 -3.5963 -5.72737 -0.329883 0.575651 -9.82773 0.343898 -7.066 -3.28793 -0.723056 0.387108 14.3757 2.54617 0.448953 -8.1932 -10.2657 -1.05782 -11.4515 0.417889 0.0117564 1.94163 0.165439 0.0117567 1.94164 0.165439 -2.09311 -2.12015 -1.44915 -27.8386 7.97882 -12.5174 -51.9903 40.2443 9.22732 13.8602 2.90675 -26.0799 -5.19233 -0.403475 0.163542 -1.59028e-015 -9.54166e-015 2.38542e-015 -1.59028e-015 -9.54167e-015 7.95139e-016 34.6642 10.4798 16.3553 29.6781 -24.5377 -12.3355 -28.4653 3.1089 85.8871 -38.031 1.52595 -3.28942 3.18055e-015 7.95139e-015 3.18055e-015 3.18055e-015 9.54167e-015 4.77083e-015 -0.475894 0.534269 -1.88554 
6.4745 95.5727 -8.13338 -0.51726 -3.10029 1.85889 0.141026 0.947421 0.123507 6.81413 -5.64549 8.68626 -1.17646 14.5774 -1.81814 -3.60763 -5.80888 -0.23167 0.577745 -9.83698 0.333652 -6.68597 -3.34554 0.0113556 0.421515 14.2387 2.26361 0.28751 -8.02328 -10.8079 -1.00064 -11.4515 0.386044 0.127951 1.89498 0.240639 0.127951 1.89498 0.24064 -2.03707 -1.99744 -1.51124 -27.8808 7.87334 -12.6188 -51.5177 39.9862 9.12792 13.745 3.2885 -26.1993 -5.00848 -0.38819 0.196172 -1.59028e-015 0 -7.95139e-016 1.59028e-015 0 -1.59028e-015 34.478 10.4611 16.6633 27.3102 -28.9701 -6.81115 -29.8098 2.5625 87.1806 -42.0382 0.549611 -2.80017 6.36111e-015 7.95139e-016 2.38542e-015 6.36111e-015 4.77083e-015 -3.18055e-015 -0.571187 0.624709 -1.91063 
6.42963 95.5896 -8.10275 -0.460711 -3.0911 2.0512 0.144006 0.936652 0.14643 6.76628 -5.564 8.64828 -1.19155 14.3545 -2.0428 -3.63955 -5.6633 -0.13597 0.613323 -9.84218 0.289075 -6.72753 -3.25137 -0.105413 0.447874 14.1899 2.23674 0.241416 -8.03768 -10.8965 -1.00581 -11.452 0.388509 0.140507 1.87348 0.287512 0.140506 1.87348 0.287513 -2.08112 -1.83962 -1.5135 -27.8292 7.74711 -12.7228 -51.2213 39.8549 8.942 13.8105 3.64704 -26.0434 -4.96224 -0.326611 0.130429 3.18055e-015 -3.18055e-015 -1.59028e-015 3.18055e-015 0 -3.18055e-015 33.8797 10.3154 17.074 26.4437 -32.2648 0.108415 -30.3691 2.32689 86.2955 -45.5236 0.991245 -2.60845 -1.24141e-031 -7.95139e-016 -8.94531e-015 -2.92421e-031 -1.59028e-015 -1.05356e-014 -0.535629 0.598598 -1.9369 
6.38307 95.6003 -8.17715 -0.35257 -2.8469 2.02626 0.148228 0.885123 0.238799 6.63898 -5.69929 8.54665 -1.18545 14.121 -1.96485 -3.62996 -5.49118 -0.105842 0.568778 -9.8466 0.25042 -6.8101 -3.56975 0.0989201 0.51819 14.3579 2.1462 0.178224 -8.07038 -11.1139 -1.00292 -11.4527 0.392296 0.133762 1.77051 0.471537 0.133762 1.77051 0.471534 -2.21954 -1.70641 -1.53193 -27.793 7.68288 -12.8801 -50.8241 39.8748 8.72245 13.7705 3.61271 -25.9131 -5.02784 -0.337489 0.0917601 3.18055e-015 -6.36111e-015 -0 4.77083e-015 -3.18056e-015 -0 32.8954 10.2158 17.8293 27.8121 -35.7396 7.45278 -31.5945 2.56851 84.1774 -47.1257 -0.642742 -2.13102 -3.18055e-015 3.97569e-015 6.95746e-015 -3.18055e-015 2.78299e-015 9.83984e-015 -0.438956 0.549422 -2.01905 
6.31811 95.6109 -8.12501 -0.285047 -2.94115 2.51838 0.148042 0.908821 0.242915 6.57284 -5.61703 8.3633 -1.11138 13.9266 -2.25874 -3.68756 -5.35961 -0.129359 0.581508 -9.84667 0.240316 -6.83213 -3.32494 -0.494905 0.468638 14.3258 2.21402 0.158185 -8.1489 -11.0926 -1.00869 -11.4532 0.416273 0.118024 1.81788 0.480477 0.118024 1.81788 0.480475 -2.16111 -1.75835 -1.65591 -27.7419 7.7086 -12.9087 -50.6112 39.7629 8.59463 13.7725 3.58078 -25.9575 -4.99331 -0.311915 0.158528 -3.53112e-031 -6.36111e-015 -3.18055e-015 -7.94503e-031 -9.54167e-015 -4.77083e-015 31.6076 10.3025 18.6227 29.8168 -37.807 14.8375 -31.6806 3.30018 80.7239 -48.8952 -1.18361 -1.89426 1.40693e-031 -2.38542e-015 3.37934e-015 2.26213e-031 -1.59028e-015 8.15017e-015 -0.483174 0.642478 -2.11161 
6.23429 95.6215 -8.19252 -0.17406 -2.69145 3.08737 0.148096 0.873767 0.23883 6.44208 -5.88819 8.01784 -1.04906 13.6717 -2.39699 -3.74167 -5.10201 -0.188188 0.579351 -9.84333 0.250949 -6.91572 -3.48655 -0.812749 0.53247 14.4195 2.04978 0.108578 -8.23533 -11.2228 -1.0308 -11.4503 0.429765 0.0989457 1.74772 0.471902 0.0989462 1.74773 0.471906 -2.28416 -1.83131 -1.75544 -27.7727 7.75872 -12.8043 -50.1398 39.729 8.35176 13.7336 3.56855 -26.0199 -5.04701 -0.338158 0.0825 -3.18055e-015 3.18055e-015 -0 -3.18055e-015 6.36111e-015 -0 30.2145 10.3717 19.5669 30.3802 -35.8571 20.9555 -31.3859 1.89344 74.4921 -50.2959 -1.68756 -2.15893 1.59028e-015 0 -3.37934e-015 1.59028e-015 7.95139e-016 1.98785e-016 -0.422933 0.709058 -2.25472 
6.10271 95.637 -8.24817 -0.158211 -2.54386 3.52549 0.146991 0.863962 0.286476 6.47982 -6.09409 8.10239 -0.977515 13.5213 -2.56356 -3.83026 -4.87335 -0.527299 0.568914 -9.85239 0.199599 -6.83968 -3.54492 -0.942779 0.555904 14.3954 1.92678 0.0149129 -8.23649 -11.4845 -1.03383 -11.4456 0.424689 0.116894 1.72937 0.566115 0.116894 1.72935 0.566112 -2.50204 -2.00561 -1.93309 -27.5345 7.84517 -12.6039 -49.9226 39.7827 8.04417 13.7306 3.5509 -26.0337 -5.02155 -0.334422 0.0588831 4.77083e-015 3.18055e-015 -0 3.18055e-015 0 1.59028e-015 29.0765 10.6678 20.7664 28.8804 -32.4894 25.4314 -31.5101 -0.127208 66.7187 -50.888 -2.00614 -2.87618 0 0 -4.37326e-015 0 0 -9.93923e-016 -0.174331 0.837186 -2.54068 
